#!OML:ASF G:\JayActor3\Patient Classification 1\Patient 1\Session 6\male.ASF
:FULLY-SPECIFIED
:DEGREES
695
root 16.3973 14.869 -12.6874 173.459 -38.3826 -180.612
lowerback 20.891 1.91286 -3.54167
upperback 13.0747 -0.885631 -9.35113
thorax 2.50836 -1.37635 -8.05872
lowerneck -0.89165 1.60482 2.92721
upperneck 20.976 1.37974 -3.10068
head 6.5556 0.224185 -1.45797
rclavicle 6.20208e-014 2.22639e-014
rhumerus -33.4979 16.6593 -96.8127
rradius 121.761
rwrist 15.514
rhand 14.7054 -21.4225
rfingers 7.12502
rthumb 39.5742 -46.7756
lclavicle 6.20208e-014 2.22639e-014
lhumerus -24.1721 -12.8103 82.1194
lradius 116.579
lwrist 7.62276
lhand 6.69212 33.3262
lfingers 7.12502
lthumb 31.9826 60.5356
rfemur -57.5829 -11.4766 28.012
rtibia 76.741
rfoot -22.113 -6.80798
rtoes -26.0956
lfemur -5.25954 26.3102 -15.8187
ltibia 53.8216
lfoot -30.9741 13.3442
ltoes -13.8255
696
root 16.3026 14.903 -12.7816 173.747 -38.4085 -180.831
lowerback 20.6553 1.89825 -3.46528
upperback 13.029 -0.843533 -9.32355
thorax 2.57977 -1.34022 -8.07749
lowerneck -0.841753 1.59394 3.1453
upperneck 20.9338 1.34338 -3.04771
head 6.53421 0.228827 -1.47956
rclavicle 1.74931e-014 -7.31528e-014
rhumerus -33.5281 16.4104 -96.7919
rradius 121.844
rwrist 15.5708
rhand 14.6795 -21.4132
rfingers 7.12502
rthumb 39.5499 -46.7735
lclavicle 1.74931e-014 -7.31528e-014
lhumerus -24.4899 -13.1257 82.3961
lradius 116.574
lwrist 7.68197
lhand 6.55952 33.3715
lfingers 7.12502
lthumb 31.8563 60.6062
rfemur -56.7479 -11.2806 27.9136
rtibia 73.4003
rfoot -22.3584 -7.23673
rtoes -25.8761
lfemur -4.41563 26.1199 -15.9175
ltibia 52.9783
lfoot -30.6843 13.3196
ltoes -14.1618
697
root 16.208 14.9381 -12.8782 174.06 -38.4655 -181.051
lowerback 20.3975 1.86836 -3.38596
upperback 12.9709 -0.814385 -9.28941
thorax 2.64711 -1.30856 -8.08703
lowerneck -0.795446 1.5854 3.3535
upperneck 20.8732 1.31101 -2.98347
head 6.50755 0.236033 -1.49536
rclavicle 2.06736e-014 5.40694e-014
rhumerus -33.5583 16.1678 -96.776
rradius 121.924
rwrist 15.6444
rhand 14.6541 -21.3891
rfingers 7.12502
rthumb 39.5259 -46.7565
lclavicle 2.06736e-014 5.40694e-014
lhumerus -24.8322 -13.4371 82.6628
lradius 116.576
lwrist 7.74536
lhand 6.41287 33.3738
lfingers 7.12502
lthumb 31.7167 60.6361
rfemur -55.8513 -11.0707 27.7549
rtibia 69.9979
rfoot -22.5697 -7.56211
rtoes -25.7543
lfemur -3.59627 25.9199 -16.0066
ltibia 52.1254
lfoot -30.3247 13.2443
ltoes -14.5555
698
root 16.1135 14.9738 -12.9772 174.395 -38.5603 -181.272
lowerback 20.1219 1.81295 -3.3209
upperback 12.8979 -0.813081 -9.23548
thorax 2.70318 -1.28995 -8.05933
lowerneck -0.743515 1.59052 3.50309
upperneck 20.7906 1.30068 -2.9056
head 6.47303 0.250706 -1.49536
rclavicle -6.36111e-015 -1.33583e-013
rhumerus -33.5961 15.9758 -96.745
rradius 122.004
rwrist 15.7152
rhand 14.6244 -21.3534
rfingers 7.12502
rthumb 39.498 -46.7289
lclavicle -6.36111e-015 -1.33583e-013
lhumerus -25.2131 -13.7025 82.9434
lradius 116.591
lwrist 7.81821
lhand 6.2432 33.3625
lfingers 7.12502
lthumb 31.555 60.6567
rfemur -54.8988 -10.8386 27.5256
rtibia 66.5532
rfoot -22.7523 -7.80526
rtoes -25.7543
lfemur -2.79488 25.7115 -16.0859
ltibia 51.2612
lfoot -29.9053 13.1311
ltoes -15.0303
699
root 16.0192 15.0095 -13.0788 174.741 -38.6872 -181.488
lowerback 19.8354 1.73164 -3.2765
upperback 12.8099 -0.84159 -9.15326
thorax 2.74454 -1.28614 -7.98103
lowerneck -0.689293 1.61407 3.58167
upperneck 20.6853 1.32134 -2.82261
head 6.43123 0.275648 -1.47974
rclavicle 7.95139e-015 3.18055e-015
rhumerus -33.6472 15.8526 -96.6936
rradius 122.09
rwrist 15.7675
rhand 14.5844 -21.3162
rfingers 7.12502
rthumb 39.4603 -46.7028
lclavicle 7.95139e-015 3.18055e-015
lhumerus -25.6342 -13.8948 83.2452
lradius 116.621
lwrist 7.87716
lhand 6.09185 33.3322
lfingers 7.12502
lthumb 31.4108 60.6546
rfemur -53.89 -10.5609 27.226
rtibia 63.0855
rfoot -22.9287 -7.98157
rtoes -25.7565
lfemur -1.99824 25.506 -16.1409
ltibia 50.3811
lfoot -29.4464 12.9639
ltoes -15.5413
700
root 15.9251 15.0449 -13.1829 175.094 -38.8581 -181.692
lowerback 19.5418 1.61151 -3.26246
upperback 12.7054 -0.91685 -9.02922
thorax 2.76536 -1.30617 -7.82842
lowerneck -0.627315 1.66659 3.55194
upperneck 20.5615 1.39 -2.74066
head 6.38267 0.315525 -1.44338
rclavicle -3.02153e-014 -1.04958e-013
rhumerus -33.719 15.8379 -96.6069
rradius 122.186
rwrist 15.7838
rhand 14.5314 -21.278
rfingers 7.12502
rthumb 39.4104 -46.6792
lclavicle -3.02153e-014 -1.04958e-013
lhumerus -26.1027 -13.968 83.5842
lradius 116.669
lwrist 7.92449
lhand 5.9753 33.2927
lfingers 7.12502
lthumb 31.2998 60.6366
rfemur -52.8308 -10.2355 26.8543
rtibia 59.6175
rfoot -23.113 -8.15186
rtoes -25.74
lfemur -1.20228 25.2974 -16.1685
ltibia 49.4774
lfoot -28.9604 12.754
ltoes -16.0884
701
root 15.8306 15.0797 -13.2897 175.447 -39.0641 -181.887
lowerback 19.2424 1.46558 -3.26405
upperback 12.5908 -1.02222 -8.87125
thorax 2.77529 -1.34129 -7.62346
lowerneck -0.566489 1.7367 3.44784
upperneck 20.426 1.4897 -2.66556
head 6.33071 0.36458 -1.39498
rclavicle 8.26944e-014 -1.90833e-013
rhumerus -33.8035 15.8939 -96.4938
rradius 122.289
rwrist 15.7607
rhand 14.4704 -21.2467
rfingers 7.12502
rthumb 39.3529 -46.6647
lclavicle 8.26944e-014 -1.90833e-013
lhumerus -26.6004 -13.9542 83.9498
lradius 116.727
lwrist 7.96736
lhand 5.91694 33.263
lfingers 7.12502
lthumb 31.2442 60.6177
rfemur -51.7202 -9.84384 26.4032
rtibia 56.1752
rfoot -23.3178 -8.38733
rtoes -25.639
lfemur -0.388803 25.0919 -16.169
ltibia 48.5391
lfoot -28.4591 12.5047
ltoes -16.6403
702
root 15.7357 15.114 -13.3994 175.804 -39.3068 -182.076
lowerback 18.9337 1.29471 -3.28064
upperback 12.4673 -1.15695 -8.68159
thorax 2.77841 -1.39112 -7.37018
lowerneck -0.510984 1.82278 3.28012
upperneck 20.2842 1.61814 -2.60431
head 6.27774 0.422055 -1.33882
rclavicle -1.11319e-014 -7.31528e-014
rhumerus -33.897 16.0131 -96.3575
rradius 122.398
rwrist 15.6994
rhand 14.4102 -21.2205
rfingers 7.12502
rthumb 39.2962 -46.655
lclavicle -1.11319e-014 -7.31528e-014
lhumerus -27.1223 -13.8561 84.3379
lradius 116.794
lwrist 8.02022
lhand 5.90361 33.2451
lfingers 7.12502
lthumb 31.2315 60.6022
rfemur -50.5693 -9.37254 25.8664
rtibia 52.79
rfoot -23.5557 -8.74338
rtoes -25.4918
lfemur 0.442769 24.8865 -16.1498
ltibia 47.5578
lfoot -27.9527 12.2302
ltoes -17.177
703
root 15.6401 15.1476 -13.5119 176.172 -39.5833 -182.27
lowerback 18.614 1.12256 -3.28004
upperback 12.3401 -1.28917 -8.48755
thorax 2.78538 -1.43791 -7.12452
lowerneck -0.467939 1.89638 3.13301
upperneck 20.1443 1.73107 -2.55587
head 6.22715 0.473236 -1.29122
rclavicle 4.92986e-014 6.83819e-014
rhumerus -33.9973 16.0975 -96.225
rradius 122.511
rwrist 15.6257
rhand 14.3553 -21.1946
rfingers 7.12502
rthumb 39.2444 -46.6441
lclavicle 4.92986e-014 6.83819e-014
lhumerus -27.6411 -13.7728 84.7122
lradius 116.857
lwrist 8.10736
lhand 5.92505 33.2536
lfingers 7.12502
lthumb 31.2519 60.6067
rfemur -49.3942 -8.80689 25.2302
rtibia 49.5
rfoot -23.8304 -9.25763
rtoes -25.2993
lfemur 1.29523 24.6797 -16.1271
ltibia 46.527
lfoot -27.4413 11.9513
ltoes -17.6965
704
root 15.5439 15.1808 -13.6273 176.554 -39.8848 -182.472
lowerback 18.2763 0.954705 -3.2614
upperback 12.2119 -1.41217 -8.29376
thorax 2.80332 -1.47851 -6.8936
lowerneck -0.448871 1.95515 3.01038
upperneck 20.0171 1.82322 -2.51214
head 6.18431 0.516205 -1.2505
rclavicle 2.22639e-014 9.70069e-014
rhumerus -34.0824 16.131 -96.0945
rradius 122.615
rwrist 15.546
rhand 14.3236 -21.1585
rfingers 7.12502
rthumb 39.2146 -46.6167
lclavicle 2.22639e-014 9.70069e-014
lhumerus -28.1509 -13.7154 85.0711
lradius 116.912
lwrist 8.23362
lhand 5.94416 33.2883
lfingers 7.12502
lthumb 31.2701 60.6379
rfemur -48.2092 -8.1252 24.4894
rtibia 46.3467
rfoot -24.1343 -9.93806
rtoes -25.1061
lfemur 2.16781 24.4768 -16.1041
ltibia 45.4487
lfoot -26.9265 11.6773
ltoes -18.1766
